<?xml version="1.0" encoding="utf-8"?>
<!-- Generator: Adobe Illustrator 26.5.0, SVG Export Plug-In . SVG Version: 6.00 Build 0)  -->
<svg version="1.1" id="Layer_1" xmlns="http://www.w3.org/2000/svg" xmlns:xlink="http://www.w3.org/1999/xlink" x="0px" y="0px"
	 viewBox="0 0 512 512" style="enable-background:new 0 0 512 512;" xml:space="preserve">
<g id="XMLID_19_">
	<path id="XMLID_24_" d="M-0.05,256c0-34.66,12.35-64.4,37.18-89.24s54.58-37.18,89.24-37.18s64.4,12.35,89.24,37.18l40.69,38.59
		l40.69-39.29c24.41-24.41,53.88-36.48,88.54-36.48c34.24,0,63.84,12.35,88.82,37.18s37.6,54.58,37.6,89.24s-12.49,64.4-37.6,89.24
		s-54.72,37.18-88.82,37.18c-34.66,0-64.4-12.35-89.24-37.18l-39.85-38.73l-41.39,39.29c-24.41,24.41-53.88,36.48-88.54,36.48
		s-64.4-12.35-89.24-37.18C12.3,320.4-0.05,290.66-0.05,256z M126.37,202.54c-14.45,0-27.08,5.33-37.6,15.86
		c-10.52,10.52-15.86,23.01-15.86,37.6c0,15.01,5.19,27.64,15.43,37.88c10.24,10.24,23.01,15.43,37.88,15.43
		c15.01,0,27.64-5.19,37.88-15.43L202.7,256l-38.59-37.18C153.59,208.01,140.96,202.54,126.37,202.54z M423.55,293.88
		c10.24-10.24,15.43-23.01,15.43-37.88c0-14.87-5.19-27.64-15.43-37.88c-10.24-10.24-22.87-15.43-37.6-15.43
		c-14.73,0-27.22,5.19-37.6,15.43L309.06,256l38.59,37.18c10.24,10.24,23.01,15.57,37.88,15.86
		C400.68,309.32,413.31,304.27,423.55,293.88z"/>
</g>
</svg>
